<?xml version="1.0" encoding="utf-8" ?>
<svg baseProfile="full" height="600px" version="1.1" width="1000px" xmlns="http://www.w3.org/2000/svg" xmlns:ev="http://www.w3.org/2001/xml-events" xmlns:xlink="http://www.w3.org/1999/xlink"><defs /><rect fill="white" height="600px" width="1000px" x="0" y="0" /><text font-size="24px" font-weight="bold" x="50" y="40">Dual-IQ VHF/UHF Transceiver Block Diagram</text><text font-size="20px" x="80" y="80">RX Path</text><rect fill="lightblue" height="60" stroke="black" width="120" x="60" y="100" /><text font-size="14px" x="75" y="135">Antenna</text><rect fill="lightgreen" height="60" stroke="black" width="120" x="200" y="100" /><text font-size="14px" x="205" y="135">Bandpass Filter</text><rect fill="lightyellow" height="60" stroke="black" width="120" x="360" y="100" /><text font-size="14px" x="395" y="135">LNA</text><rect fill="lightpink" height="60" stroke="black" width="120" x="520" y="100" /><text font-size="14px" x="525" y="135">Mixer / LTC5594</text><rect fill="lavender" height="60" stroke="black" width="120" x="680" y="100" /><text font-size="14px" x="685" y="135">Baseband I/Q LPF</text><rect fill="lightgray" height="60" stroke="black" width="120" x="840" y="100" /><text font-size="13px" x="845" y="135">Codec TLV320AIC3204</text><text font-size="20px" x="80" y="240">TX Path</text><rect fill="lightgray" height="60" stroke="black" width="120" x="60" y="260" /><text font-size="14px" x="75" y="295">Codec / DAC</text><rect fill="lightpink" height="60" stroke="black" width="120" x="220" y="260" /><text font-size="14px" x="225" y="295">Modulator / IQ Mixer</text><rect fill="lightyellow" height="60" stroke="black" width="120" x="380" y="260" /><text font-size="14px" x="400" y="295">Driver Amp</text><rect fill="lightgreen" height="60" stroke="black" width="120" x="540" y="260" /><text font-size="14px" x="570" y="295">50W PA</text><rect fill="lightblue" height="60" stroke="black" width="120" x="700" y="260" /><text font-size="14px" x="710" y="295">LPF &amp; Antenna</text><text font-size="20px" x="80" y="420">Control &amp; Processing</text><rect fill="lightcoral" height="80" stroke="black" width="180" x="60" y="440" /><text font-size="14px" x="85" y="480">STM32H743 MCU</text><rect fill="lightgray" height="80" stroke="black" width="180" x="280" y="440" /><text font-size="14px" x="320" y="480">I2S / SPI HAL</text><rect fill="lavender" height="80" stroke="black" width="180" x="500" y="440" /><text font-size="12px" x="505" y="480">DSP Pipeline (CTCSS/DCS/DTMF)</text><rect fill="lightgreen" height="80" stroke="black" width="180" x="720" y="440" /><text font-size="12px" x="730" y="480">UI &amp; Controls (Encoder, Display)</text></svg>